PathFileType	4	(X/Y/Z)	/Users/itak/Documents/Research/Walk-IL/dataset/trc/00361_00011.trc
DataRate	CameraRate	NumFrames	NumMarkers	Units	OrigDataRate	OrigDataStartFrame	OrigNumFrames
100.000000	100.000000	4	54	mm	100.000000	211	563
Frame#	Time	RPSI			LPSI			L3			STRN			T10			C7			CLAV			RBAK			LBAK			LSHO			LUPA			LAEL			LAOL			LWTS			LWPS			LFRA			LIFD			LHPS			LHTS			RSHO			RUPA			RAEL			RAOL			RWTS			RWPS			RFRA			RIFD			RHTS			RHPS			RBHD			LFHD			RFHD			LBHD			LHIP			RHIP			RASI			LASI			LKNE			LTHI			LANK			LTIP			LTOE			LMT1			LMT5			LHEE			RKNE			RTHI			RTIP			RTOE			RMT1			RMT5			RANK			RHEE			*53			
		X1	Y1	Z1	X2	Y2	Z2	X3	Y3	Z3	X4	Y4	Z4	X5	Y5	Z5	X6	Y6	Z6	X7	Y7	Z7	X8	Y8	Z8	X9	Y9	Z9	X10	Y10	Z10	X11	Y11	Z11	X12	Y12	Z12	X13	Y13	Z13	X14	Y14	Z14	X15	Y15	Z15	X16	Y16	Z16	X17	Y17	Z17	X18	Y18	Z18	X19	Y19	Z19	X20	Y20	Z20	X21	Y21	Z21	X22	Y22	Z22	X23	Y23	Z23	X24	Y24	Z24	X25	Y25	Z25	X26	Y26	Z26	X27	Y27	Z27	X28	Y28	Z28	X29	Y29	Z29	X30	Y30	Z30	X31	Y31	Z31	X32	Y32	Z32	X33	Y33	Z33	X34	Y34	Z34	X35	Y35	Z35	X36	Y36	Z36	X37	Y37	Z37	X38	Y38	Z38	X39	Y39	Z39	X40	Y40	Z40	X41	Y41	Z41	X42	Y42	Z42	X43	Y43	Z43	X44	Y44	Z44	X45	Y45	Z45	X46	Y46	Z46	X47	Y47	Z47	X48	Y48	Z48	X49	Y49	Z49	X50	Y50	Z50	X51	Y51	Z51	X52	Y52	Z52	X53	Y53	Z53	X54	Y54	Z54	

212	2.11	-1225.923828125	954.4215087890625	895.6201171875	-1226.119750976562	954.5302734375	766.241943359375	-1231.007446289062	1019.561645507812	842.4064331054688	-980.488037109375	1180.091918945312	816.48828125	-1227.169067382812	1136.655151367188	846.4403076171875	-1161.373168945312	1376.99169921875	814.3583984375	-1011.854187011719	1308.722534179688	805.9736938476562	-1212.616821289062	1248.214599609375	896.1643676757812	-1188.74072265625	1335.487060546875	718.446533203125	-1111.050903320312	1339.71044921875	650.8585815429688	-1162.814208984375	1224.788452148438	598.0565795898438	-1201.446899414062	1025.740356445312	594.15625	-1243.279907226562	1026.027465820312	667.62060546875	-1166.010986328125	763.9638671875	614.7207641601562	-1223.839599609375	767.8683471679688	574.8434448242188	-1217.875610351562	922.0948486328125	585.9368286132812	-1210.921997070312	607.3678588867188	620.2484741210938	-1246.026611328125	702.1682739257812	584.7505493164062	-1185.30078125	687.62744140625	600.5651245117188	-1088.446411132812	1372.11865234375	969.9761962890625	-1094.551025390625	1313.825317382812	1039.59375	-1070.45556640625	1051.91552734375	1110.003784179688	-1127.123657226562	1033.6044921875	1035.995727539062	-952.9956665039062	829.2553100585938	1050.745239257812	-971.0172119140625	815.7054443359375	1124.180541992188	-1039.435668945312	985.9365844726562	1118.778686523438	-930.0745239257812	656.1366577148438	1064.920166015625	-918.261962890625	728.0599365234375	1060.248657226562	-952.048583984375	732.4038696289062	1121.374145507812	-1084.94873046875	1582.7587890625	876.57373046875	-951.1939697265625	1574.537963867188	717.8576049804688	-933.4931030273438	1582.835693359375	817.3043823242188	-1135.975830078125	1569.343627929688	742.3875122070312	-1133.176147460938	904.4494018554688	662.970458984375	-1156.5029296875	888.3881225585938	1004.178527832031	-1046.442016601562	911.7702026367188	971.9943237304688	-1019.574279785156	923.7559204101562	734.2298583984375	-911.9739990234375	488.20947265625	661.5368041992188	-972.8271484375	613.103271484375	653.4046020507812	-855.474853515625	60.50693511962891	639.8601684570312	-878.1439208984375	268.4471740722656	635.5296630859375	-657.6788940429688	117.9004058837891	691.2593383789062	-715.078125	79.73041534423828	732.0159912109375	-736.1343994140625	93.44355773925781	621.8876953125	-883.0901489257812	45.27619934082031	708.9202880859375	-1196.33984375	433.9089965820312	976.2918701171875	-1114.67822265625	680.2525024414062	1004.559692382812	-1223.570434570312	314.7778625488281	956.7444458007812	-1189.665405273438	47.03488540649414	902.713623046875	-1239.860107421875	42.35275650024414	856.3897705078125	-1285.937133789062	38.81077194213867	967.2527465820312	-1375.427612304688	79.68601989746094	944.9262084960938	-1425.84521484375	85.45161437988281	894.6524658203125	nan	nan	nan	
213	2.12	-1219.206665039062	952.779052734375	894.4441528320312	-1219.068237304688	952.8062744140625	765.0545654296875	-1223.953125	1017.695129394531	841.307861328125	-973.6395874023438	1177.893920898438	815.7440795898438	-1220.419189453125	1134.900634765625	845.4031982421875	-1154.12451171875	1375.109619140625	813.5004272460938	-1004.726135253906	1306.608520507812	805.1498413085938	-1205.667724609375	1246.40771484375	895.3101196289062	-1181.52978515625	1333.604858398438	717.515380859375	-1103.812744140625	1337.718994140625	649.9700927734375	-1156.112060546875	1223.01513671875	597.2196655273438	-1196.188598632812	1024.288330078125	593.5006713867188	-1237.730102539062	1024.867919921875	667.1668701171875	-1163.875732421875	761.9710693359375	613.9840087890625	-1221.632446289062	766.7435302734375	574.2206420898438	-1213.708984375	920.8642578125	585.30908203125	-1211.1396484375	606.099365234375	619.7891845703125	-1244.869262695312	701.3189086914062	584.1552124023438	-1184.30908203125	685.9493408203125	599.9310302734375	-1081.284545898438	1370.0390625	969.1438598632812	-1087.364501953125	1311.676147460938	1038.73876953125	-1061.93701171875	1049.823974609375	1109.115478515625	-1118.520874023438	1031.155029296875	1035.138061523438	-943.0615844726562	828.0675048828125	1049.518676757812	-961.0376586914062	814.2431030273438	1122.919921875	-1030.393310546875	984.1900024414062	1117.843017578125	-918.6058959960938	655.098876953125	1063.530639648438	-907.484619140625	727.074462890625	1058.8330078125	-941.2625732421875	731.1153564453125	1119.92333984375	-1077.558349609375	1580.775146484375	875.7687377929688	-943.9105224609375	1572.538330078125	716.9976806640625	-926.1607055664062	1580.787963867188	816.4583740234375	-1128.632446289062	1567.452758789062	741.630615234375	-1125.9091796875	902.6328735351562	661.74462890625	-1149.992431640625	886.5217895507812	1003.006164550781	-1040.004272460938	909.8021850585938	971.4212646484375	-1012.540954589844	921.5359497070312	733.66357421875	-905.9785766601562	485.7226867675781	660.7974853515625	-967.1273803710938	610.169921875	652.4983520507812	-838.0289306640625	60.09504699707031	640.1075439453125	-866.5858764648438	267.6039733886719	635.1019897460938	-641.7097778320312	123.2916488647461	690.8414306640625	-697.9664916992188	83.48506927490234	731.6683349609375	-719.4642944335938	96.13593292236328	621.6710815429688	-865.1588134765625	44.50370788574219	709.202880859375	-1193.102905273438	432.9402465820312	976.0475463867188	-1109.66650390625	678.5579833984375	1003.9501953125	-1221.299072265625	314.0804138183594	956.5280151367188	-1189.699584960938	46.97049713134766	902.6773681640625	-1239.894409179688	42.35029602050781	856.3611450195312	-1286.137939453125	38.63950347900391	967.1082763671875	-1375.3095703125	80.34906768798828	944.8024291992188	-1425.87109375	85.59583282470703	894.6395874023438	nan	nan	nan	
214	2.13	-1212.301879882812	951.1482543945312	893.1817016601562	-1211.863891601562	951.0787963867188	763.7887573242188	-1216.6953125	1015.809509277344	840.1497802734375	-966.6065063476562	1175.738159179688	814.8952026367188	-1213.453735351562	1133.110229492188	844.281005859375	-1146.74365234375	1373.20654296875	812.55810546875	-997.4480590820312	1304.529663085938	804.2135009765625	-1198.55078125	1244.5673828125	894.3656616210938	-1174.193969726562	1331.712524414062	716.50537109375	-1096.462280273438	1335.738159179688	648.9830932617188	-1149.238403320312	1221.226440429688	596.284912109375	-1190.637573242188	1022.8134765625	592.6940307617188	-1231.918701171875	1023.644226074219	666.56298828125	-1161.304077148438	760.006103515625	613.1106567382812	-1218.952880859375	765.6124877929688	573.4180908203125	-1209.173461914062	919.5972900390625	584.54248046875	-1210.847045898438	604.8787231445312	619.2313232421875	-1243.210571289062	700.4932861328125	583.3951416015625	-1182.808349609375	684.3253784179688	599.1636352539062	-1073.979248046875	1367.960083007812	968.2363891601562	-1080.037841796875	1309.4873046875	1037.786010742188	-1053.269775390625	1047.673706054688	1108.003662109375	-1109.720947265625	1028.674560546875	1034.022583007812	-932.9758911132812	826.8285522460938	1048.105712890625	-950.929443359375	812.7066040039062	1121.427734375	-1021.225219726562	982.351806640625	1116.684204101562	-906.999755859375	654.0408935546875	1061.81298828125	-896.5203857421875	726.2059936523438	1057.317504882812	-930.4423217773438	729.7557983398438	1118.264038085938	-1070.05322265625	1578.822143554688	874.8457641601562	-936.4760131835938	1570.54052734375	716.0545654296875	-918.7167358398438	1578.726928710938	815.5183715820312	-1121.15673828125	1565.585571289062	740.7354736328125	-1118.549682617188	900.799560546875	660.5248413085938	-1143.279418945312	884.7161865234375	1001.747436523438	-1033.372924804688	907.8511352539062	970.7267456054688	-1005.359741210938	919.347412109375	732.9869384765625	-899.4978637695312	483.4055480957031	660.0106811523438	-961.0142822265625	607.3313598632812	651.481689453125	-821.7936401367188	59.66647720336914	640.646240234375	-855.3906860351562	266.8134155273438	634.7674560546875	-626.8233642578125	127.9058380126953	690.610595703125	-682.083740234375	86.83682250976562	731.5570678710938	-703.8975219726562	98.30940246582031	621.6288452148438	-848.4967041015625	43.98903656005859	709.717529296875	-1189.7529296875	432.056640625	975.767333984375	-1104.360473632812	676.8544311523438	1003.211730957031	-1218.953857421875	313.4784851074219	956.3247680664062	-1189.730224609375	46.92358779907227	902.662109375	-1239.9189453125	42.37102890014648	856.3630981445312	-1286.282348632812	38.50133895874023	967.0103759765625	-1375.131713867188	81.04740905761719	944.7257690429688	-1425.896362304688	85.735107421875	894.6547241210938	nan	nan	nan	
215	2.14	-1205.212158203125	949.5376586914062	891.8349609375	-1204.529052734375	949.348876953125	762.4434814453125	-1209.2578125	1013.931335449219	838.9242553710938	-959.390625	1173.63671875	813.9193725585938	-1206.267822265625	1131.305297851562	843.0858154296875	-1139.224243164062	1371.311279296875	811.5340576171875	-990.0149536132812	1302.499145507812	803.1605224609375	-1191.254760742188	1242.717895507812	893.33447265625	-1166.72900390625	1329.8369140625	715.4253540039062	-1088.998046875	1333.7861328125	647.8980712890625	-1142.195922851562	1219.439819335938	595.261962890625	-1184.804077148438	1021.33251953125	591.7523803710938	-1225.845703125	1022.370178222656	665.824951171875	-1158.275756835938	758.0955200195312	612.0859985351562	-1215.798706054688	764.4811401367188	572.4469604492188	-1204.27294921875	918.3161010742188	583.6451416015625	-1210.002319335938	603.7130126953125	618.5476684570312	-1241.031005859375	699.6932983398438	582.4829711914062	-1180.785766601562	682.7462158203125	598.2547607421875	-1066.511840820312	1365.906616210938	967.2531127929688	-1072.544189453125	1307.2841796875	1036.738159179688	-1044.441772460938	1045.4873046875	1106.673706054688	-1100.719482421875	1026.192504882812	1032.657470703125	-922.7548828125	825.55908203125	1046.498413085938	-940.7074584960938	811.1056518554688	1119.694946289062	-1011.934753417969	980.4378662109375	1115.310424804688	-895.260498046875	652.9986572265625	1059.739013671875	-885.35595703125	725.4835205078125	1055.675415039062	-919.62744140625	728.3527221679688	1116.400756835938	-1062.431274414062	1576.91943359375	873.80712890625	-928.89013671875	1568.575927734375	715.0191650390625	-911.1544189453125	1576.689453125	814.4743041992188	-1113.552490234375	1563.7490234375	739.702880859375	-1111.113403320312	898.94384765625	659.3245849609375	-1136.368530273438	883.0016479492188	1000.39306640625	-1026.542846679688	905.9304809570312	969.89453125	-998.0408325195312	917.2156982421875	732.17431640625	-892.53369140625	481.2666931152344	659.1932983398438	-954.4581298828125	604.6369018554688	650.3514404296875	-806.904052734375	59.10965728759766	641.4537353515625	-844.62939453125	266.005859375	634.546142578125	-613.0624389648438	131.5925598144531	690.460205078125	-667.4668579101562	89.62490844726562	731.6207885742188	-689.5667724609375	99.83953857421875	621.7075805664062	-833.2015380859375	43.59847259521484	710.4872436523438	-1186.281860351562	431.2885437011719	975.4466552734375	-1098.80224609375	675.2060546875	1002.371765136719	-1216.535522460938	312.9805603027344	956.14208984375	-1189.746337890625	46.89139175415039	902.6738891601562	-1239.9228515625	42.43045806884766	856.3933715820312	-1286.326538085938	38.4301872253418	966.969482421875	-1374.851196289062	81.81415557861328	944.7060546875	-1425.9140625	85.87713623046875	894.6954345703125	nan	nan	nan	
